{
	"patcher" : 	{
		"fileversion" : 1,
		"appversion" : 		{
			"major" : 8,
			"minor" : 0,
			"revision" : 8,
			"architecture" : "x64",
			"modernui" : 1
		}
,
		"classnamespace" : "box",
		"rect" : [ 637.0, 117.0, 634.0, 255.0 ],
		"bglocked" : 0,
		"openinpresentation" : 1,
		"default_fontsize" : 12.0,
		"default_fontface" : 0,
		"default_fontname" : "Arial",
		"gridonopen" : 1,
		"gridsize" : [ 15.0, 15.0 ],
		"gridsnaponopen" : 1,
		"objectsnaponopen" : 1,
		"statusbarvisible" : 2,
		"toolbarvisible" : 1,
		"lefttoolbarpinned" : 0,
		"toptoolbarpinned" : 0,
		"righttoolbarpinned" : 0,
		"bottomtoolbarpinned" : 0,
		"toolbars_unpinned_last_save" : 0,
		"tallnewobj" : 0,
		"boxanimatetime" : 200,
		"enablehscroll" : 1,
		"enablevscroll" : 1,
		"devicewidth" : 0.0,
		"description" : "",
		"digest" : "",
		"tags" : "",
		"style" : "",
		"subpatcher_template" : "",
		"boxes" : [ 			{
				"box" : 				{
					"id" : "obj-29",
					"linecount" : 2,
					"maxclass" : "comment",
					"numinlets" : 1,
					"numoutlets" : 0,
					"patching_rect" : [ 370.0, 164.0, 150.0, 33.0 ],
					"presentation" : 1,
					"presentation_linecount" : 2,
					"presentation_rect" : [ 345.0, 140.0, 236.0, 33.0 ],
					"text" : "Connor Rawls, Synthesis, AME, ASU, June 2020"
				}

			}
, 			{
				"box" : 				{
					"bgcolor" : [ 0.880169, 0.755396, 0.471904, 1.0 ],
					"fontface" : 1,
					"fontlink" : 1,
					"fontsize" : 18.0,
					"id" : "obj-25",
					"ignoreclick" : 1,
					"maxclass" : "textbutton",
					"numinlets" : 1,
					"numoutlets" : 3,
					"outlettype" : [ "", "", "int" ],
					"parameter_enable" : 0,
					"patching_rect" : [ 256.0, 468.0, 26.0107421875, 28.109375 ],
					"presentation" : 1,
					"presentation_rect" : [ 272.75, 169.9453125, 26.0107421875, 28.109375 ],
					"rounded" : 100.0,
					"text" : "4",
					"textoncolor" : [ 0.0, 0.0, 0.0, 1.0 ]
				}

			}
, 			{
				"box" : 				{
					"bgcolor" : [ 0.880169, 0.755396, 0.471904, 1.0 ],
					"fontface" : 1,
					"fontlink" : 1,
					"fontsize" : 18.0,
					"id" : "obj-23",
					"ignoreclick" : 1,
					"maxclass" : "textbutton",
					"numinlets" : 1,
					"numoutlets" : 3,
					"outlettype" : [ "", "", "int" ],
					"parameter_enable" : 0,
					"patching_rect" : [ 241.0, 453.0, 26.0107421875, 28.109375 ],
					"presentation" : 1,
					"presentation_rect" : [ 272.75, 117.9453125, 26.0107421875, 28.109375 ],
					"rounded" : 100.0,
					"text" : "3",
					"textoncolor" : [ 0.0, 0.0, 0.0, 1.0 ]
				}

			}
, 			{
				"box" : 				{
					"bgcolor" : [ 0.880169, 0.755396, 0.471904, 1.0 ],
					"fontface" : 1,
					"fontlink" : 1,
					"fontsize" : 18.0,
					"id" : "obj-21",
					"ignoreclick" : 1,
					"maxclass" : "textbutton",
					"numinlets" : 1,
					"numoutlets" : 3,
					"outlettype" : [ "", "", "int" ],
					"parameter_enable" : 0,
					"patching_rect" : [ 226.0, 438.0, 26.0107421875, 28.109375 ],
					"presentation" : 1,
					"presentation_rect" : [ 272.75, 73.9453125, 26.0107421875, 28.109375 ],
					"rounded" : 100.0,
					"text" : "2",
					"textoncolor" : [ 0.0, 0.0, 0.0, 1.0 ]
				}

			}
, 			{
				"box" : 				{
					"bgcolor" : [ 0.880169, 0.755396, 0.471904, 1.0 ],
					"fontface" : 1,
					"fontlink" : 1,
					"fontsize" : 18.0,
					"id" : "obj-6",
					"ignoreclick" : 1,
					"maxclass" : "textbutton",
					"numinlets" : 1,
					"numoutlets" : 3,
					"outlettype" : [ "", "", "int" ],
					"parameter_enable" : 0,
					"patching_rect" : [ 211.0, 423.0, 26.0107421875, 28.109375 ],
					"presentation" : 1,
					"presentation_rect" : [ 249.0, 26.5, 26.0107421875, 28.109375 ],
					"rounded" : 100.0,
					"text" : "1",
					"textoncolor" : [ 0.0, 0.0, 0.0, 1.0 ]
				}

			}
, 			{
				"box" : 				{
					"id" : "obj-28",
					"linecount" : 10,
					"maxclass" : "comment",
					"numinlets" : 1,
					"numoutlets" : 0,
					"patching_rect" : [ 473.0, 338.0, 151.0, 141.0 ],
					"presentation" : 1,
					"presentation_linecount" : 6,
					"presentation_rect" : [ 345.0, 53.0, 236.0, 87.0 ],
					"text" : "The \"Foregrounder\" application attempts to distinguish between the background and foreground of the input video stream. The full color estimated foreground is shown while the estimated background is left black."
				}

			}
, 			{
				"box" : 				{
					"fontface" : 1,
					"fontsize" : 18.0,
					"id" : "obj-26",
					"maxclass" : "comment",
					"numinlets" : 1,
					"numoutlets" : 0,
					"patching_rect" : [ 454.0, 306.0, 237.0, 27.0 ],
					"presentation" : 1,
					"presentation_rect" : [ 345.0, 26.5, 236.0, 27.0 ],
					"text" : "Foregrounder"
				}

			}
, 			{
				"box" : 				{
					"id" : "obj-24",
					"maxclass" : "comment",
					"numinlets" : 1,
					"numoutlets" : 0,
					"patching_rect" : [ 247.5, 197.0, 170.0, 20.0 ],
					"presentation" : 1,
					"presentation_rect" : [ 74.75, 30.0, 170.0, 20.0 ],
					"text" : "Enable Application Rendering"
				}

			}
, 			{
				"box" : 				{
					"id" : "obj-22",
					"maxclass" : "comment",
					"numinlets" : 1,
					"numoutlets" : 0,
					"patching_rect" : [ 265.0, 30.0, 150.0, 20.0 ],
					"presentation" : 1,
					"presentation_rect" : [ 6.75, 100.0, 264.0, 20.0 ],
					"text" : "Set Playback Resolution"
				}

			}
, 			{
				"box" : 				{
					"id" : "obj-9",
					"maxclass" : "comment",
					"numinlets" : 1,
					"numoutlets" : 0,
					"patching_rect" : [ 613.0, 50.0, 150.0, 20.0 ],
					"presentation" : 1,
					"presentation_rect" : [ 6.75, 146.5, 150.0, 20.0 ],
					"text" : "Playback Volume"
				}

			}
, 			{
				"box" : 				{
					"id" : "obj-2",
					"maxclass" : "newobj",
					"numinlets" : 1,
					"numoutlets" : 1,
					"outlettype" : [ "" ],
					"patching_rect" : [ 533.0, 51.0, 70.0, 22.0 ],
					"text" : "loadmess 0"
				}

			}
, 			{
				"box" : 				{
					"id" : "obj-20",
					"maxclass" : "newobj",
					"numinlets" : 1,
					"numoutlets" : 1,
					"outlettype" : [ "" ],
					"patching_rect" : [ 533.0, 119.0, 71.0, 22.0 ],
					"text" : "prepend vol"
				}

			}
, 			{
				"box" : 				{
					"floatoutput" : 1,
					"id" : "obj-19",
					"maxclass" : "slider",
					"mult" : 0.01,
					"numinlets" : 1,
					"numoutlets" : 1,
					"orientation" : 1,
					"outlettype" : [ "" ],
					"parameter_enable" : 0,
					"patching_rect" : [ 533.0, 80.5, 180.0, 31.0 ],
					"presentation" : 1,
					"presentation_rect" : [ 7.0, 168.5, 263.75, 31.0 ],
					"size" : 100.0
				}

			}
, 			{
				"box" : 				{
					"id" : "obj-18",
					"maxclass" : "newobj",
					"numinlets" : 2,
					"numoutlets" : 2,
					"outlettype" : [ "jit_gl_texture", "" ],
					"patching_rect" : [ 71.75, 471.0, 147.0, 22.0 ],
					"text" : "sc.texture.binaryop @op *",
					"varname" : "sc.texture.binaryop"
				}

			}
, 			{
				"box" : 				{
					"id" : "obj-17",
					"maxclass" : "newobj",
					"numinlets" : 1,
					"numoutlets" : 2,
					"outlettype" : [ "", "" ],
					"patching_rect" : [ 71.75, 212.0, 29.5, 22.0 ],
					"text" : "t l l"
				}

			}
, 			{
				"box" : 				{
					"id" : "obj-16",
					"maxclass" : "newobj",
					"numinlets" : 1,
					"numoutlets" : 2,
					"outlettype" : [ "jit_matrix", "" ],
					"patching_rect" : [ 71.75, 504.0, 201.0, 22.0 ],
					"text" : "jit.gl.videoplane @transform_reset 2"
				}

			}
, 			{
				"box" : 				{
					"args" : [ "@memory", 0.95 ],
					"bgmode" : 0,
					"border" : 0,
					"clickthrough" : 0,
					"enablehscroll" : 0,
					"enablevscroll" : 0,
					"id" : "obj-15",
					"lockeddragscroll" : 0,
					"maxclass" : "bpatcher",
					"name" : "sc.texture.presence.maxpat",
					"numinlets" : 1,
					"numoutlets" : 3,
					"offset" : [ 0.0, 0.0 ],
					"outlettype" : [ "", "jit_gl_texture", "" ],
					"patching_rect" : [ 199.75, 269.0, 192.0, 193.0 ],
					"varname" : "sc.texture.presence",
					"viewvisibility" : 1
				}

			}
, 			{
				"box" : 				{
					"id" : "obj-14",
					"maxclass" : "newobj",
					"numinlets" : 1,
					"numoutlets" : 1,
					"outlettype" : [ "" ],
					"patching_rect" : [ 188.75, 30.0, 70.0, 22.0 ],
					"text" : "loadmess 0"
				}

			}
, 			{
				"box" : 				{
					"id" : "obj-13",
					"maxclass" : "message",
					"numinlets" : 2,
					"numoutlets" : 1,
					"outlettype" : [ "" ],
					"patching_rect" : [ 377.75, 119.0, 88.0, 22.0 ],
					"text" : "dim 1920 1080"
				}

			}
, 			{
				"box" : 				{
					"id" : "obj-12",
					"maxclass" : "message",
					"numinlets" : 2,
					"numoutlets" : 1,
					"outlettype" : [ "" ],
					"patching_rect" : [ 283.25, 119.0, 81.0, 22.0 ],
					"text" : "dim 1280 720"
				}

			}
, 			{
				"box" : 				{
					"id" : "obj-11",
					"maxclass" : "newobj",
					"numinlets" : 4,
					"numoutlets" : 4,
					"outlettype" : [ "bang", "bang", "bang", "" ],
					"patching_rect" : [ 188.75, 85.0, 302.5, 22.0 ],
					"text" : "sel 0 1 2"
				}

			}
, 			{
				"box" : 				{
					"id" : "obj-10",
					"maxclass" : "message",
					"numinlets" : 2,
					"numoutlets" : 1,
					"outlettype" : [ "" ],
					"patching_rect" : [ 188.75, 119.0, 75.0, 22.0 ],
					"text" : "dim 640 360"
				}

			}
, 			{
				"box" : 				{
					"id" : "obj-8",
					"maxclass" : "live.tab",
					"num_lines_patching" : 1,
					"num_lines_presentation" : 1,
					"numinlets" : 1,
					"numoutlets" : 3,
					"outlettype" : [ "", "", "float" ],
					"parameter_enable" : 1,
					"patching_rect" : [ 188.75, 58.0, 264.0, 20.0 ],
					"presentation" : 1,
					"presentation_rect" : [ 6.75, 122.0, 264.0, 20.0 ],
					"saved_attribute_attributes" : 					{
						"valueof" : 						{
							"parameter_longname" : "live.tab",
							"parameter_mmax" : 2,
							"parameter_shortname" : "live.tab",
							"parameter_enum" : [ "640x360", "1280x720", "1920x1080" ],
							"parameter_type" : 2,
							"parameter_unitstyle" : 0
						}

					}
,
					"varname" : "live.tab"
				}

			}
, 			{
				"box" : 				{
					"id" : "obj-7",
					"maxclass" : "message",
					"numinlets" : 2,
					"numoutlets" : 1,
					"outlettype" : [ "" ],
					"patching_rect" : [ 71.75, 104.0, 33.0, 22.0 ],
					"text" : "read"
				}

			}
, 			{
				"box" : 				{
					"id" : "obj-5",
					"maxclass" : "textbutton",
					"numinlets" : 1,
					"numoutlets" : 3,
					"outlettype" : [ "", "", "int" ],
					"parameter_enable" : 0,
					"patching_rect" : [ 71.75, 58.0, 100.0, 20.0 ],
					"presentation" : 1,
					"presentation_rect" : [ 6.75, 78.0, 264.0, 20.0 ],
					"text" : "Load Video File"
				}

			}
, 			{
				"box" : 				{
					"id" : "obj-4",
					"maxclass" : "newobj",
					"numinlets" : 1,
					"numoutlets" : 2,
					"outlettype" : [ "jit_matrix", "" ],
					"patching_rect" : [ 71.75, 164.0, 329.0, 22.0 ],
					"text" : "jit.movie @output_texture 1 @drawto foreground @unique 1"
				}

			}
, 			{
				"box" : 				{
					"id" : "obj-3",
					"maxclass" : "toggle",
					"numinlets" : 1,
					"numoutlets" : 1,
					"outlettype" : [ "int" ],
					"parameter_enable" : 0,
					"patching_rect" : [ 218.0, 195.0, 24.0, 24.0 ],
					"presentation" : 1,
					"presentation_rect" : [ 6.75, 7.0, 66.0, 66.0 ]
				}

			}
, 			{
				"box" : 				{
					"id" : "obj-1",
					"maxclass" : "newobj",
					"numinlets" : 1,
					"numoutlets" : 3,
					"outlettype" : [ "", "bang", "" ],
					"patching_rect" : [ 218.0, 231.0, 229.0, 22.0 ],
					"text" : "jit.world foreground @erase_color 0 0 0 1"
				}

			}
 ],
		"lines" : [ 			{
				"patchline" : 				{
					"destination" : [ "obj-4", 0 ],
					"source" : [ "obj-10", 0 ]
				}

			}
, 			{
				"patchline" : 				{
					"destination" : [ "obj-10", 0 ],
					"source" : [ "obj-11", 0 ]
				}

			}
, 			{
				"patchline" : 				{
					"destination" : [ "obj-12", 0 ],
					"source" : [ "obj-11", 1 ]
				}

			}
, 			{
				"patchline" : 				{
					"destination" : [ "obj-13", 0 ],
					"source" : [ "obj-11", 2 ]
				}

			}
, 			{
				"patchline" : 				{
					"destination" : [ "obj-4", 0 ],
					"source" : [ "obj-12", 0 ]
				}

			}
, 			{
				"patchline" : 				{
					"destination" : [ "obj-4", 0 ],
					"source" : [ "obj-13", 0 ]
				}

			}
, 			{
				"patchline" : 				{
					"destination" : [ "obj-8", 0 ],
					"source" : [ "obj-14", 0 ]
				}

			}
, 			{
				"patchline" : 				{
					"destination" : [ "obj-18", 1 ],
					"source" : [ "obj-15", 0 ]
				}

			}
, 			{
				"patchline" : 				{
					"destination" : [ "obj-15", 0 ],
					"midpoints" : [ 91.75, 255.0, 209.25, 255.0 ],
					"source" : [ "obj-17", 1 ]
				}

			}
, 			{
				"patchline" : 				{
					"destination" : [ "obj-18", 0 ],
					"source" : [ "obj-17", 0 ]
				}

			}
, 			{
				"patchline" : 				{
					"destination" : [ "obj-16", 0 ],
					"source" : [ "obj-18", 0 ]
				}

			}
, 			{
				"patchline" : 				{
					"destination" : [ "obj-20", 0 ],
					"source" : [ "obj-19", 0 ]
				}

			}
, 			{
				"patchline" : 				{
					"destination" : [ "obj-19", 0 ],
					"source" : [ "obj-2", 0 ]
				}

			}
, 			{
				"patchline" : 				{
					"destination" : [ "obj-4", 0 ],
					"source" : [ "obj-20", 0 ]
				}

			}
, 			{
				"patchline" : 				{
					"destination" : [ "obj-1", 0 ],
					"source" : [ "obj-3", 0 ]
				}

			}
, 			{
				"patchline" : 				{
					"destination" : [ "obj-17", 0 ],
					"source" : [ "obj-4", 0 ]
				}

			}
, 			{
				"patchline" : 				{
					"destination" : [ "obj-7", 0 ],
					"source" : [ "obj-5", 0 ]
				}

			}
, 			{
				"patchline" : 				{
					"destination" : [ "obj-4", 0 ],
					"source" : [ "obj-7", 0 ]
				}

			}
, 			{
				"patchline" : 				{
					"destination" : [ "obj-11", 0 ],
					"source" : [ "obj-8", 0 ]
				}

			}
 ],
		"parameters" : 		{
			"obj-8" : [ "live.tab", "live.tab", 0 ],
			"parameterbanks" : 			{

			}

		}
,
		"dependency_cache" : [ 			{
				"name" : "sc.texture.presence.maxpat",
				"bootpath" : "~/Documents/Max 7/Packages/SC/patchers/video/texture",
				"patcherrelativepath" : "../../../../../../../../Users/CRawls/Documents/Max 7/Packages/SC/patchers/video/texture",
				"type" : "JSON",
				"implicit" : 1
			}
, 			{
				"name" : "bypass_dummy.genjit",
				"bootpath" : "~/Documents/Max 7/Packages/SC/code",
				"patcherrelativepath" : "../../../../../../../../Users/CRawls/Documents/Max 7/Packages/SC/code",
				"type" : "gJIT",
				"implicit" : 1
			}
, 			{
				"name" : "thru.maxpat",
				"bootpath" : "C74:/patchers/m4l/Pluggo for Live resources/patches",
				"type" : "JSON",
				"implicit" : 1
			}
, 			{
				"name" : "sc.texture.binaryop.maxpat",
				"bootpath" : "~/Documents/Max 7/Packages/SC/patchers/video/texture",
				"patcherrelativepath" : "../../../../../../../../Users/CRawls/Documents/Max 7/Packages/SC/patchers/video/texture",
				"type" : "JSON",
				"implicit" : 1
			}
 ],
		"autosave" : 0
	}

}
